<?xml version="1.0" encoding="UTF-8" standalone="no"?>
<!DOCTYPE svg PUBLIC "-//W3C//DTD SVG 1.1//EN" "http://www.w3.org/Graphics/SVG/1.1/DTD/svg11.dtd">
<svg width="100%" height="100%" viewBox="0 0 260 80" version="1.1" xmlns="http://www.w3.org/2000/svg" xmlns:xlink="http://www.w3.org/1999/xlink" xml:space="preserve" xmlns:serif="http://www.serif.com/" style="fill-rule:evenodd;clip-rule:evenodd;stroke-linejoin:round;stroke-miterlimit:2;">
    <g transform="matrix(1.02803,0,0,1.02803,-78.6464,-122.753)">
        <g transform="matrix(0.888625,0,0,0.888625,165.631,149.529)">
            <path d="M-0.017,-1.463L5.653,-1.463L5.653,4.889C4.888,5.554 4.007,6.052 2.976,6.418C1.962,6.784 0.798,6.95 -0.499,6.95C-1.696,6.95 -2.777,6.767 -3.725,6.385C-4.672,6.002 -5.47,5.487 -6.136,4.822C-6.801,4.157 -7.299,3.342 -7.648,2.411C-7.998,1.48 -8.164,0.449 -8.164,-0.682C-8.164,-1.779 -7.981,-2.794 -7.615,-3.741C-7.25,-4.672 -6.734,-5.487 -6.052,-6.185C-5.387,-6.884 -4.573,-7.432 -3.658,-7.815C-2.744,-8.214 -1.713,-8.413 -0.582,-8.413C0.748,-8.413 1.912,-8.164 2.926,-7.682C3.924,-7.183 4.755,-6.501 5.42,-5.62L3.176,-3.492C2.71,-4.041 2.195,-4.506 1.629,-4.855C1.064,-5.204 0.366,-5.387 -0.449,-5.387C-1.114,-5.387 -1.729,-5.254 -2.245,-5.022C-2.777,-4.772 -3.226,-4.44 -3.592,-4.007C-3.958,-3.575 -4.24,-3.093 -4.423,-2.511C-4.606,-1.945 -4.706,-1.33 -4.706,-0.682C-4.706,0.016 -4.589,0.665 -4.373,1.23C-4.157,1.796 -3.841,2.295 -3.458,2.694C-3.06,3.093 -2.594,3.409 -2.062,3.625C-1.53,3.841 -0.948,3.957 -0.316,3.957C0.266,3.957 0.798,3.891 1.28,3.741C1.762,3.608 2.195,3.375 2.577,3.076L2.577,1.23L-0.017,1.23L-0.017,-1.463Z" style="fill:white;fill-rule:nonzero;"/>
        </g>
        <g transform="matrix(0.888625,0,0,0.888625,182.002,149.514)">
            <path d="M0,-1.413C0.615,-1.413 1.098,-1.596 1.447,-1.962C1.796,-2.328 1.979,-2.793 1.979,-3.342C1.979,-3.94 1.796,-4.423 1.447,-4.772C1.098,-5.121 0.615,-5.304 0,-5.304L-2.045,-5.304L-2.045,-1.413L0,-1.413ZM-5.271,-8.031L0.183,-8.031C1.031,-8.031 1.779,-7.914 2.428,-7.665C3.076,-7.415 3.608,-7.1 4.041,-6.684C4.473,-6.268 4.789,-5.786 5.005,-5.221C5.221,-4.672 5.321,-4.074 5.321,-3.442C5.321,-2.494 5.104,-1.663 4.689,-0.948C4.273,-0.233 3.675,0.333 2.926,0.749L6.186,6.618L2.544,6.618L-0.183,1.231L-2.045,1.231L-2.045,6.618L-5.271,6.618L-5.271,-8.031Z" style="fill:white;fill-rule:nonzero;"/>
        </g>
        <g transform="matrix(0.888625,0,0,0.888625,200.308,147.653)">
            <path d="M0,2.776L-1.779,-2.761L-3.608,2.776L0,2.776ZM-3.492,-5.936L0.183,-5.936L5.537,8.712L1.912,8.712L0.798,5.353L-4.356,5.353L-5.47,8.712L-8.945,8.712L-3.492,-5.936Z" style="fill:white;fill-rule:nonzero;"/>
        </g>
        <g transform="matrix(0.888625,0,0,0.888625,215.556,149.352)">
            <path d="M0,-1.048C0.615,-1.048 1.098,-1.231 1.464,-1.613C1.829,-1.979 1.995,-2.478 1.995,-3.076C1.995,-3.692 1.812,-4.191 1.447,-4.59C1.081,-4.972 0.582,-5.172 -0.033,-5.172L-1.945,-5.172L-1.945,-1.065L0,-1.065L0,-1.048ZM-5.171,-7.848L0.167,-7.848C1.081,-7.848 1.846,-7.715 2.494,-7.449C3.143,-7.183 3.675,-6.834 4.091,-6.402C4.506,-5.969 4.822,-5.471 5.005,-4.889C5.187,-4.307 5.305,-3.725 5.305,-3.11C5.305,-2.312 5.171,-1.63 4.905,-1.031C4.64,-0.433 4.273,0.05 3.808,0.449C3.343,0.848 2.811,1.147 2.212,1.347C1.613,1.546 0.981,1.646 0.316,1.646L-1.945,1.646L-1.945,6.8L-5.171,6.8L-5.171,-7.848Z" style="fill:white;fill-rule:nonzero;"/>
        </g>
        <g transform="matrix(0.888625,0,0,0.888625,225.323,155.395)">
            <path d="M0,-14.648L3.309,-14.648L3.309,-9.028L9.66,-9.028L9.66,-14.648L12.969,-14.648L12.969,0L9.66,0L9.66,-6.019L3.309,-6.019L3.309,0L0,0L0,-14.648Z" style="fill:white;fill-rule:nonzero;"/>
        </g>
        <g transform="matrix(0.888625,0,0,0.888625,-229.78,92.8308)">
            <rect x="533.242" y="55.757" width="3.309" height="14.648" style="fill:white;"/>
        </g>
        <g transform="matrix(0.888625,0,0,0.888625,254.179,155.735)">
            <path d="M0,-15.031L3.342,-15.031L3.342,-6.352C3.342,-5.869 3.392,-5.437 3.491,-5.038C3.592,-4.656 3.741,-4.323 3.957,-4.04C4.174,-3.758 4.473,-3.542 4.822,-3.392C5.187,-3.242 5.62,-3.159 6.152,-3.159C6.668,-3.159 7.1,-3.242 7.466,-3.392C7.831,-3.542 8.114,-3.758 8.33,-4.04C8.546,-4.323 8.713,-4.656 8.796,-5.038C8.896,-5.421 8.945,-5.869 8.945,-6.352L8.945,-15.031L12.304,-15.031L12.304,-5.936C12.304,-5.055 12.154,-4.257 11.872,-3.525C11.589,-2.794 11.174,-2.162 10.642,-1.646C10.109,-1.131 9.461,-0.715 8.696,-0.432C7.931,-0.133 7.083,0 6.152,0C5.221,0 4.373,-0.15 3.608,-0.432C2.843,-0.715 2.194,-1.131 1.663,-1.646C1.131,-2.162 0.715,-2.81 0.433,-3.542C0.149,-4.273 0,-5.072 0,-5.953L0,-15.031Z" style="fill:white;fill-rule:nonzero;"/>
        </g>
        <g transform="matrix(0.888625,0,0,0.888625,272.264,155.395)">
            <path d="M0,-14.648L3.143,-14.648L6.967,-7.764L10.708,-14.648L13.867,-14.648L14.549,0L11.24,0L10.824,-9.577L7.799,-3.857L6.086,-3.857L2.877,-9.51L2.511,0L-0.648,0L0,-14.648Z" style="fill:white;fill-rule:nonzero;"/>
        </g>
        <g transform="matrix(0.822543,0,0,0.822543,179.756,174.542)">
            <path d="M0,-14.648L3.31,-14.648L3.31,-9.028L9.661,-9.028L9.661,-14.648L12.97,-14.648L12.97,0L9.661,0L9.661,-6.019L3.31,-6.019L3.31,0L0,0L0,-14.648Z" style="fill:white;fill-rule:nonzero;"/>
        </g>
        <g transform="matrix(0.822543,0,0,0.822543,196.77,174.542)">
            <path d="M-0.017,-14.648L10.01,-14.648L10.01,-11.755L3.309,-11.755L3.309,-8.895L8.514,-8.895L8.514,-6.085L3.309,-6.085L3.309,-2.926L10.492,-2.926L10.492,0L-0.017,0L-0.017,-14.648Z" style="fill:white;fill-rule:nonzero;"/>
        </g>
        <g transform="matrix(0.822543,0,0,0.822543,217.558,167.363)">
            <path d="M0,2.81L-1.779,-2.727L-3.608,2.81L0,2.81ZM-3.491,-5.919L0.183,-5.919L5.537,8.729L1.912,8.729L0.798,5.371L-4.356,5.371L-5.471,8.729L-8.945,8.729L-3.491,-5.919Z" style="fill:white;fill-rule:nonzero;"/>
        </g>
        <g transform="matrix(0.822543,0,0,0.822543,227.419,174.542)">
            <path d="M0,-14.648L3.325,-14.648L3.325,-2.942L10.325,-2.942L10.325,0L0,0L0,-14.648Z" style="fill:white;fill-rule:nonzero;"/>
        </g>
        <g transform="matrix(0.822543,0,0,0.822543,242.477,172.15)">
            <path d="M0,-8.813L-4.739,-8.813L-4.739,-11.739L8.064,-11.739L8.064,-8.813L3.342,-8.813L3.342,2.926L0,2.926L0,-8.813Z" style="fill:white;fill-rule:nonzero;"/>
        </g>
        <g transform="matrix(0.404389,0,0,0.404389,207.92,50.9083)">
            <g transform="matrix(0.888625,0,0,0.888625,263.451,210.79)">
                <path d="M0,-14.648L3.143,-14.648L6.967,-7.764L10.708,-14.648L13.867,-14.648L14.549,0L11.24,0L10.824,-9.577L7.799,-3.857L6.086,-3.857L2.877,-9.51L2.511,0L-0.648,0L0,-14.648Z" style="fill:white;fill-rule:nonzero;"/>
            </g>
            <g transform="matrix(0.878277,0,0,0.886464,251.231,208.18)">
                <path d="M0,-8.813L-4.739,-8.813L-4.739,-11.739L8.064,-11.739L8.064,-8.813L3.342,-8.813L3.342,2.926L0,2.926L0,-8.813Z" style="fill:white;fill-rule:nonzero;"/>
            </g>
        </g>
        <g transform="matrix(0.822543,0,0,0.822543,253.145,174.542)">
            <path d="M0,-14.648L3.31,-14.648L3.31,-9.028L9.661,-9.028L9.661,-14.648L12.97,-14.648L12.97,0L9.661,0L9.661,-6.019L3.31,-6.019L3.31,0L0,0L0,-14.648Z" style="fill:white;fill-rule:nonzero;"/>
        </g>
        <g transform="matrix(1,0,0,1,1.62891,28.5547)">
            <path d="M302.184,105.22C302.184,102.658 300.104,100.578 297.542,100.578L89.242,100.578C86.68,100.578 84.6,102.658 84.6,105.22L84.6,153.719C84.6,156.281 86.68,158.361 89.242,158.361L297.542,158.361C300.104,158.361 302.184,156.281 302.184,153.719L302.184,105.22ZM300.239,105.22L300.239,153.719C300.239,155.207 299.03,156.415 297.542,156.415L89.242,156.415C87.754,156.415 86.546,155.207 86.546,153.719L86.546,105.22C86.546,103.731 87.754,102.523 89.242,102.523L297.542,102.523C299.03,102.523 300.239,103.731 300.239,105.22Z" style="fill:white;"/>
        </g>
        <path d="M140.476,129.132L90.587,129.132C88.182,129.132 86.229,131.085 86.229,133.49L86.229,182.558C86.229,184.963 88.182,186.916 90.587,186.916L140.476,186.916L140.476,129.132ZM130.934,174.263C131.988,174.263 132.795,173.421 132.795,172.403L132.795,143.645C132.795,142.592 131.952,141.785 130.934,141.785L125.598,141.785C124.544,141.785 123.738,142.628 123.738,143.645L123.738,172.403C123.738,173.457 124.578,174.263 125.598,174.263L130.934,174.263ZM115.449,174.263C116.503,174.263 117.311,173.421 117.311,172.403L117.311,153.758C117.311,152.705 116.467,151.898 115.449,151.898L110.112,151.898C109.061,151.898 108.252,152.741 108.252,153.758L108.252,172.403C108.252,173.457 109.095,174.263 110.112,174.263L115.449,174.263ZM99.966,174.263C101.019,174.263 101.826,173.421 101.826,172.403L101.826,164.959C101.826,163.905 100.983,163.096 99.966,163.096L94.629,163.096C93.576,163.096 92.767,163.941 92.767,164.959L92.767,172.403C92.767,173.457 93.609,174.263 94.629,174.263L99.966,174.263Z" style="fill:white;"/>
    </g>
</svg>
